<svg width="25" height="46" viewBox="0 0 25 46" fill="none" xmlns="http://www.w3.org/2000/svg">
<path d="M24.3104 0.685439C23.871 0.246531 23.2753 0 22.6542 0C22.0331 0 21.4374 0.246531 20.9979 0.685439L0.685439 20.9979C0.246531 21.4374 0 22.0331 0 22.6542C0 23.2753 0.246531 23.871 0.685439 24.3104L20.9979 44.6229C21.4422 45.0369 22.0299 45.2623 22.6371 45.2516C23.2443 45.2409 23.8236 44.9949 24.253 44.5655C24.6824 44.1361 24.9284 43.5568 24.9391 42.9496C24.9498 42.3424 24.7244 41.7547 24.3104 41.3104L5.65419 22.6542L24.3104 3.99794C24.7493 3.55848 24.9959 2.96278 24.9959 2.34169C24.9959 1.72059 24.7493 1.12489 24.3104 0.685439Z" fill="white"/>
</svg>
