<svg width="415" height="215" viewBox="0 0 415 215" fill="none" xmlns="http://www.w3.org/2000/svg">
<path d="M101.21 94.732C102.647 93.4237 104.936 94.622 104.573 96.4927L98.305 128.8C98.1425 129.638 98.5481 130.473 99.3116 130.873L129.251 146.545C130.976 147.449 130.451 149.995 128.489 150.242L94.7776 154.47C93.8924 154.581 93.175 155.24 93.0093 156.094L86.7645 188.28C86.3999 190.159 83.786 190.534 82.9423 188.828L68.2537 159.13C67.8821 158.379 67.0578 157.947 66.1998 158.055L32.2843 162.309C30.3361 162.554 29.2453 160.239 30.6893 158.925L55.4179 136.415C56.074 135.818 56.2601 134.881 55.8768 134.106L41.2766 104.587C40.4267 102.868 42.3666 101.062 44.0922 101.966L74.0311 117.639C74.7947 118.038 75.7443 117.913 76.3879 117.327L101.21 94.732Z" fill="#291083"/>
<path d="M191.955 39.2336C192.638 37.4439 195.2 37.5358 195.742 39.3694L202.373 61.8029C202.616 62.6248 203.356 63.1988 204.214 63.2295L228.281 64.0927C230.236 64.1628 230.931 66.7085 229.285 67.7706L209.426 80.5833C208.678 81.0659 208.337 81.983 208.589 82.8345L215.154 105.047C215.701 106.897 213.566 108.378 212.028 107.216L192.92 92.7924C192.251 92.2875 191.337 92.2547 190.63 92.7103L170.458 105.725C168.834 106.774 166.82 105.144 167.508 103.338L175.776 81.6577C176.093 80.8265 175.824 79.8876 175.116 79.3528L156.305 65.1531C154.746 63.9761 155.636 61.4873 157.591 61.5574L181.659 62.4206C182.516 62.4513 183.299 61.932 183.605 61.1298L191.955 39.2336Z" fill="#291083"/>
<path d="M298.411 85.0906C297.872 83.2607 300.051 81.8585 301.605 83.0346L313.123 91.7489C313.819 92.2753 314.779 92.3153 315.505 91.8481L327.63 84.0434C329.266 82.9908 331.364 84.6045 330.681 86.3893L325.666 99.4975C325.358 100.3 325.629 101.211 326.335 101.744L337.782 110.405C339.341 111.585 338.46 113.984 336.493 113.912L321.833 113.371C320.963 113.338 320.176 113.845 319.875 114.631L314.809 127.869C314.13 129.645 311.486 129.515 310.946 127.679L306.979 114.203C306.735 113.372 305.963 112.785 305.074 112.752L290.558 112.216C288.581 112.143 287.829 109.663 289.464 108.61L301.59 100.805C302.315 100.338 302.643 99.4692 302.402 98.6501L298.411 85.0906Z" fill="#291083"/>
<path d="M395.477 45.3745C396.579 46.9487 394.926 48.9776 393.073 48.3266L382.682 44.6768C381.854 44.3858 380.92 44.645 380.371 45.3184L373.525 53.7227C372.305 55.2213 369.821 54.3625 369.892 52.4665L370.295 41.7589C370.326 40.9142 369.794 40.1497 368.972 39.8611L358.529 36.1929C356.679 35.5431 356.797 32.9835 358.7 32.461L369.328 29.5441C370.185 29.3089 370.79 28.5665 370.822 27.71L371.221 17.0903C371.293 15.188 373.849 14.4649 374.949 16.036L381.155 24.9057C381.643 25.6033 382.543 25.9175 383.388 25.6854L394.104 22.7445C396.002 22.2237 397.464 24.3362 396.243 25.8348L389.397 34.2391C388.848 34.9124 388.81 35.846 389.303 36.5496L395.477 45.3745Z" fill="#291083"/>
</svg>
