<svg width="25" height="46" viewBox="0 0 25 46" fill="none" xmlns="http://www.w3.org/2000/svg">
<path d="M0.685408 0.685439C1.12486 0.246531 1.72056 0 2.34166 0C2.96276 0 3.55846 0.246531 3.99791 0.685439L24.3104 20.9979C24.7493 21.4374 24.9958 22.0331 24.9958 22.6542C24.9958 23.2753 24.7493 23.871 24.3104 24.3104L3.99791 44.6229C3.55362 45.0369 2.96597 45.2623 2.35878 45.2516C1.75159 45.2409 1.17226 44.9949 0.742844 44.5655C0.313427 44.1361 0.0674534 43.5568 0.0567398 42.9496C0.0460262 42.3424 0.271408 41.7547 0.685408 41.3104L19.3417 22.6542L0.685408 3.99794C0.2465 3.55848 -2.67029e-05 2.96278 -2.67029e-05 2.34169C-2.67029e-05 1.72059 0.2465 1.12489 0.685408 0.685439Z" fill="white"/>
</svg>
