<svg width="70" height="41" viewBox="0 0 70 41" fill="none" xmlns="http://www.w3.org/2000/svg">
<path d="M69.6288 37.0275C69.544 36.84 69.465 36.6844 69.3916 36.5598C68.1771 34.3143 65.8562 31.5581 62.4304 28.2904L62.358 28.2156L62.3217 28.1789L62.2851 28.1413H62.2483C60.6935 26.6197 59.7089 25.5966 59.2966 25.0728C58.5422 24.075 58.3732 23.065 58.7855 22.0417C59.0768 21.2685 60.171 19.6356 62.0657 17.1409C63.0623 15.8187 63.8515 14.7591 64.4344 13.9607C68.6382 8.22346 70.4607 4.55727 69.9016 2.96071L69.6844 2.58762C69.5385 2.363 69.1619 2.15752 68.5552 1.97012C67.9471 1.78312 67.1698 1.75219 66.2219 1.87682L55.7258 1.95125C55.5557 1.8894 55.3129 1.89516 54.9966 1.97012C54.6807 2.04508 54.5226 2.08269 54.5226 2.08269L54.34 2.17639L54.1949 2.28896C54.0734 2.3634 53.9398 2.49432 53.7938 2.68145C53.6487 2.86793 53.5273 3.08678 53.4303 3.33616C52.2875 6.35433 50.9883 9.16045 49.5301 11.7544C48.631 13.3012 47.8054 14.6417 47.0513 15.7767C46.2983 16.9113 45.6665 17.7472 45.1567 18.2831C44.6461 18.8195 44.1852 19.2492 43.7714 19.5738C43.3582 19.8985 43.0427 20.0357 42.8243 19.9855C42.6054 19.9353 42.3992 19.8855 42.2041 19.8357C41.8641 19.6111 41.5907 19.3056 41.3845 18.9191C41.1775 18.5325 41.0381 18.0459 40.9652 17.4597C40.8927 16.8731 40.8498 16.3686 40.8375 15.9444C40.8262 15.5207 40.8314 14.9214 40.856 14.1483C40.8813 13.3747 40.8927 12.8513 40.8927 12.5769C40.8927 11.6289 40.9107 10.6 40.9468 9.49004C40.9836 8.38006 41.0133 7.5006 41.0382 6.8527C41.063 6.20414 41.0744 5.51798 41.0744 4.7946C41.0744 4.07121 41.0316 3.50391 40.9468 3.09215C40.8631 2.68093 40.7345 2.28175 40.5651 1.89477C40.3947 1.50818 40.1453 1.20913 39.818 0.996831C39.49 0.784796 39.0823 0.61653 38.5971 0.491511C37.3092 0.192329 35.6692 0.0304848 33.6764 0.00532366C29.1573 -0.0444745 26.2536 0.2551 24.9658 0.903656C24.4556 1.17768 23.9939 1.55208 23.5811 2.02569C23.1436 2.57465 23.0826 2.87422 23.3984 2.9235C24.8564 3.14772 25.8887 3.6841 26.4962 4.53211L26.7151 4.98147C26.8854 5.30568 27.0554 5.87967 27.2256 6.70265C27.3955 7.52563 27.5051 8.43602 27.5534 9.43329C27.6747 11.2545 27.6747 12.8134 27.5534 14.1103C27.4317 15.4076 27.3168 16.4176 27.2072 17.141C27.0975 17.8644 26.9336 18.4506 26.7151 18.8994C26.4962 19.3484 26.3505 19.6228 26.2775 19.7224C26.2046 19.822 26.1438 19.8847 26.0956 19.9094C25.7798 20.0336 25.4513 20.0969 25.1114 20.0969C24.7709 20.0969 24.3581 19.9221 23.8722 19.5727C23.3865 19.2234 22.8824 18.7435 22.3599 18.1322C21.8374 17.5209 21.2482 16.6666 20.5919 15.5692C19.9362 14.4718 19.2558 13.1748 18.5511 11.6783L17.9681 10.5929C17.6037 9.89471 17.1058 8.87804 16.4741 7.54385C15.8419 6.20913 15.2832 4.91804 14.7975 3.67086C14.6033 3.14706 14.3116 2.74829 13.9229 2.47387L13.7405 2.3613C13.6192 2.2617 13.4246 2.15595 13.1575 2.04325C12.8901 1.93068 12.611 1.84995 12.3192 1.80028L2.333 1.87472C1.31253 1.87472 0.620141 2.11205 0.255562 2.58605L0.109654 2.81027C0.0367642 2.93516 0 3.13461 0 3.40916C0 3.68357 0.0728902 4.02037 0.218798 4.41914C1.6766 7.93647 3.26193 11.3286 4.97479 14.5962C6.68764 17.8637 8.17608 20.4958 9.43921 22.4901C10.7026 24.4858 11.9904 26.3694 13.3025 28.1398C14.6147 29.911 15.4832 31.046 15.9082 31.5446C16.3337 32.0442 16.6679 32.4176 16.9108 32.667L17.8221 33.5648C18.4052 34.1636 19.2615 34.8807 20.3914 35.7161C21.5215 36.5521 22.7726 37.375 24.1454 38.1864C25.5185 38.9964 27.1158 39.6574 28.9383 40.1686C30.7605 40.6803 32.5342 40.8857 34.2594 40.7866H38.4508C39.3008 40.7113 39.9448 40.4368 40.3826 39.9632L40.5276 39.7757C40.6251 39.6268 40.7164 39.3955 40.8006 39.0843C40.8859 38.7725 40.9283 38.4291 40.9283 38.0554C40.9034 36.9831 40.9829 36.0166 41.1647 35.1561C41.3463 34.2959 41.5534 33.6474 41.785 33.2106C42.0164 32.7742 42.2776 32.406 42.5682 32.1074C42.8596 31.8083 43.0671 31.627 43.1889 31.5646C43.3099 31.5019 43.4066 31.4593 43.4794 31.4337C44.0626 31.2343 44.7488 31.4274 45.5393 32.0141C46.329 32.6003 47.0698 33.3241 47.7627 34.1843C48.4552 35.0453 49.2873 36.0112 50.259 37.0836C51.2313 38.1563 52.0815 38.9538 52.8102 39.4784L53.5388 39.9273C54.0254 40.2269 54.6572 40.5013 55.4348 40.7507C56.2111 41 56.8912 41.0623 57.4752 40.9377L66.8051 40.7883C67.7279 40.7883 68.4459 40.6314 68.9553 40.3202C69.4656 40.0084 69.7688 39.665 69.8666 39.2914C69.9641 38.9173 69.9693 38.493 69.8851 38.0186C69.7987 37.5454 69.7135 37.2145 69.6288 37.0275Z" fill="white"/>
</svg>
